<svg xmlns="http://www.w3.org/2000/svg" viewBox="0 0 64 64"><defs><linearGradient id="pageGrad" x1="0" y1="0" x2="0.3" y2="1"><stop offset="0" stop-color="#5aa7ff"/><stop offset="1" stop-color="#0078d7"/></linearGradient></defs><path d="M17 15 a4 4 0 0 1 4-4 h20 l13 13 v32 a4 4 0 0 1 -4 4 h-29 a4 4 0 0 1 -4-4 z" fill="#0a2540" opacity="0.55"/><path d="M15 13 a4 4 0 0 1 4-4 h20 l13 13 v32 a4 4 0 0 1 -4 4 h-29 a4 4 0 0 1 -4-4 z" fill="url(#pageGrad)"/><path d="M39 9 l13 13 h-13 z" fill="#0a3a5c"/><path d="M39 9 l13 13 h-2 l-11-11 z" fill="#7cc0ff" opacity="0.5"/><rect x="21" y="31" width="22" height="3" rx="1.5" fill="#ffffff" opacity="0.95"/><rect x="21" y="37" width="22" height="3" rx="1.5" fill="#ffffff" opacity="0.95"/><rect x="21" y="43" width="14" height="3" rx="1.5" fill="#ffffff" opacity="0.95"/></svg>