<svg xmlns="http://www.w3.org/2000/svg" viewBox="0 0 64 64"><defs><linearGradient id="pdfBlueWarmGrad" x1="0" y1="0" x2="0.8" y2="1"><stop offset="0%" stop-color="#2196F3"/><stop offset="55%" stop-color="#5B5FEF"/><stop offset="100%" stop-color="#E91E63"/></linearGradient></defs><path d="M 12 6 a 4 4 0 0 0 -4 4 v 44 a 4 4 0 0 0 4 4 h 36 a 4 4 0 0 0 4 -4 v -30 l -16 -16 z" fill="#000000" opacity="0.15" transform="translate(1, 2)"/><path d="M 12 6 a 4 4 0 0 0 -4 4 v 44 a 4 4 0 0 0 4 4 h 36 a 4 4 0 0 0 4 -4 v -30 l -16 -16 z" fill="url(#pdfBlueWarmGrad)"/><path d="M 36 6 l 16 16 h -12 a 4 4 0 0 1 -4 -4 z" fill="#ffffff" opacity="0.35"/><rect x="18" y="24" width="16" height="3" rx="1.5" fill="#ffffff" opacity="0.45"/><rect x="18" y="32" width="24" height="3" rx="1.5" fill="#ffffff" opacity="0.45"/><rect x="18" y="40" width="12" height="3" rx="1.5" fill="#ffffff" opacity="0.45"/><g transform="rotate(45 32 32)"><path d="M 23 12 h 18 v 24 l -9 12 l -9 -12 z" fill="#000000" opacity="0.15" transform="translate(1.5, 2.5)"/><path d="M 23 12 h 18 v 24 l -9 12 l -9 -12 z" fill="#ffffff"/><path d="M 23 36 l 9 -6 l 9 6 l -9 12 z" fill="#E91E63" opacity="0.25"/><polygon points="29,40 35,40 32,48" fill="#E91E63"/><rect x="23" y="18" width="18" height="4" fill="#5B5FEF" opacity="0.18"/></g></svg>