<svg xmlns="http://www.w3.org/2000/svg" viewBox="0 0 24 24" fill="none" stroke="#f0f0f0" stroke-width="1.8" stroke-linecap="round" stroke-linejoin="round"><!-- Folded top-right corner --><path d="M14 3v4a1 1 0 0 0 1 1h4" /><!-- Main document outline --><path d="M17 21H7a2 2 0 0 1-2-2V5a2 2 0 0 1 2-2h7l5 5v11a2 2 0 0 1-2 2z" /><!-- Layout bordering / margin crop marks --><path d="M10 10H9a1 1 0 0 0-1 1v1m0 3v1a1 1 0 0 0 1 1h1m4 0h1a1 1 0 0 0 1-1v-1m0-3v-1a1 1 0 0 0-1-1h-1" /><!-- Diagonal watermark placeholder --><path d="M10 15.5l4-4" /><!-- Bottom page numbering indicator --><path d="M11 19h2" /></svg>